<svg width="222" height="63" viewBox="0 0 222 63" fill="none" xmlns="http://www.w3.org/2000/svg">
<g filter="url(#filter0_d_62_2541)">
<path d="M194.912 16.792L211.7 8.64562L206.863 25.9936L202.814 19.0525L194.912 16.792Z" fill="#FDDB08"/>
<path d="M212.79 8.94991L207.953 26.2978L207.234 28.8775L205.884 26.5641L202.065 20.0159L194.601 17.8809L191.753 17.0658L194.418 15.7736L211.205 7.62657L213.465 6.53062L212.79 8.94991Z" stroke="white" stroke-width="2.26477" stroke-linecap="square"/>
</g>
<g filter="url(#filter1_dd_62_2541)">
<path d="M199 38.6456C199 29.8091 191.837 22.6456 183 22.6456H19C10.1635 22.6456 3 29.8091 3 38.6456V39.6456C3 48.4822 10.1634 55.6456 19 55.6456H183C191.837 55.6456 199 48.4822 199 39.6456V38.6456Z" fill="#FDDB08" shape-rendering="crispEdges"/>
<path d="M19.656 44.6456V33.4456H21.352V38.0856H26.248V33.4456H27.944V44.6456H26.248V39.6376H21.352V44.6456H19.656ZM33.2338 35.4936C32.8604 35.4936 32.5458 35.3763 32.2898 35.1416C32.0444 34.8963 31.9218 34.5976 31.9218 34.2456C31.9218 33.8936 32.0444 33.6003 32.2898 33.3656C32.5458 33.131 32.8604 33.0136 33.2338 33.0136C33.6178 33.0136 33.9324 33.131 34.1778 33.3656C34.4338 33.6003 34.5618 33.8936 34.5618 34.2456C34.5618 34.5976 34.4338 34.8963 34.1778 35.1416C33.9324 35.3763 33.6178 35.4936 33.2338 35.4936ZM30.0498 44.6456V43.1736H32.5458V38.7096C32.5458 38.3576 32.3751 38.1816 32.0338 38.1816H30.2738V36.7096H32.3378C32.9991 36.7096 33.4791 36.8643 33.7778 37.1736C34.0871 37.4723 34.2418 37.9523 34.2418 38.6136V43.1736H36.7378V44.6456H30.0498ZM42.1875 40.5656L41.9315 33.4456H44.0435L43.7715 40.5656H42.1875ZM43.0035 44.7416C42.6088 44.7416 42.2728 44.6136 41.9955 44.3576C41.7182 44.091 41.5795 43.771 41.5795 43.3976C41.5795 43.0243 41.7182 42.7096 41.9955 42.4536C42.2728 42.1976 42.6088 42.0696 43.0035 42.0696C43.4088 42.0696 43.7448 42.1976 44.0115 42.4536C44.2888 42.7096 44.4275 43.0243 44.4275 43.3976C44.4275 43.771 44.2888 44.091 44.0115 44.3576C43.7448 44.6136 43.4088 44.7416 43.0035 44.7416ZM58.895 44.6456V43.1416H61.327V34.9496H58.927V33.4456H65.423V34.9496H63.023V43.1416H65.455V44.6456H58.895ZM80.6425 44.8376C80.0132 44.8376 79.4852 44.731 79.0585 44.5176C78.6318 44.2936 78.3118 44.0003 78.0985 43.6376C77.8852 43.2643 77.7785 42.859 77.7785 42.4216C77.7785 41.643 78.0612 41.035 78.6265 40.5976C79.2025 40.1603 80.0132 39.9416 81.0585 39.9416H83.1065V39.7656C83.1065 38.571 82.5518 37.9736 81.4425 37.9736C80.9838 37.9736 80.5945 38.075 80.2745 38.2776C79.9652 38.4696 79.7572 38.7843 79.6505 39.2216H77.9545C78.0398 38.3896 78.3972 37.7336 79.0265 37.2536C79.6665 36.763 80.4718 36.5176 81.4425 36.5176C82.6158 36.5176 83.4692 36.8056 84.0025 37.3816C84.5358 37.9576 84.8025 38.7523 84.8025 39.7656V44.6456H83.3625L83.2185 43.4776H83.1065C82.8718 43.851 82.5785 44.171 82.2265 44.4376C81.8745 44.7043 81.3465 44.8376 80.6425 44.8376ZM80.9625 43.4136C81.6558 43.4136 82.1732 43.2056 82.5145 42.7896C82.8665 42.363 83.0585 41.8243 83.0905 41.1736H81.2345C80.6265 41.1736 80.1945 41.275 79.9385 41.4776C79.6932 41.6696 79.5705 41.9416 79.5705 42.2936C79.5705 42.6456 79.6932 42.923 79.9385 43.1256C80.1945 43.3176 80.5358 43.4136 80.9625 43.4136ZM86.5563 44.6456V36.7096H87.9643L88.1083 37.6376H88.1883C88.3269 37.307 88.5403 37.0403 88.8283 36.8376C89.1163 36.6243 89.4576 36.5176 89.8523 36.5176C90.2363 36.5176 90.5723 36.6136 90.8602 36.8056C91.1483 36.9976 91.3616 37.275 91.5003 37.6376H91.5643C91.7029 37.3176 91.9216 37.051 92.2203 36.8376C92.5189 36.6243 92.8869 36.5176 93.3243 36.5176C93.9109 36.5176 94.3536 36.7096 94.6523 37.0936C94.9616 37.4776 95.1163 38.0163 95.1163 38.7096V44.6456H93.4843V39.0456C93.4843 38.7256 93.4149 38.475 93.2763 38.2936C93.1483 38.1016 92.9403 38.0056 92.6523 38.0056C92.3643 38.0056 92.1243 38.1176 91.9323 38.3416C91.7509 38.5656 91.6603 38.8803 91.6603 39.2856V44.6456H90.0123V39.0456C90.0123 38.7256 89.9483 38.475 89.8203 38.2936C89.6923 38.1016 89.4843 38.0056 89.1963 38.0056C88.9083 38.0056 88.6683 38.1176 88.4763 38.3416C88.2843 38.5656 88.1883 38.8803 88.1883 39.2856V44.6456H86.5563ZM109.424 44.8376C108.794 44.8376 108.266 44.731 107.84 44.5176C107.413 44.2936 107.093 44.0003 106.88 43.6376C106.666 43.2643 106.56 42.859 106.56 42.4216C106.56 41.643 106.842 41.035 107.408 40.5976C107.984 40.1603 108.794 39.9416 109.84 39.9416H111.888V39.7656C111.888 38.571 111.333 37.9736 110.224 37.9736C109.765 37.9736 109.376 38.075 109.056 38.2776C108.746 38.4696 108.538 38.7843 108.432 39.2216H106.736C106.821 38.3896 107.178 37.7336 107.808 37.2536C108.448 36.763 109.253 36.5176 110.224 36.5176C111.397 36.5176 112.25 36.8056 112.784 37.3816C113.317 37.9576 113.584 38.7523 113.584 39.7656V44.6456H112.144L112 43.4776H111.888C111.653 43.851 111.36 44.171 111.008 44.4376C110.656 44.7043 110.128 44.8376 109.424 44.8376ZM109.744 43.4136C110.437 43.4136 110.954 43.2056 111.296 42.7896C111.648 42.363 111.84 41.8243 111.872 41.1736H110.016C109.408 41.1736 108.976 41.275 108.72 41.4776C108.474 41.6696 108.352 41.9416 108.352 42.2936C108.352 42.6456 108.474 42.923 108.72 43.1256C108.976 43.3176 109.317 43.4136 109.744 43.4136ZM116.186 44.6456V36.7096H117.658L117.802 37.8936H117.882C118.095 37.5096 118.426 37.1843 118.874 36.9176C119.322 36.651 119.839 36.5176 120.426 36.5176C121.396 36.5176 122.127 36.811 122.618 37.3976C123.108 37.9843 123.354 38.8483 123.354 39.9896V44.6456H121.658V40.1976C121.658 39.5363 121.519 39.0243 121.242 38.6616C120.964 38.299 120.527 38.1176 119.93 38.1176C119.343 38.1176 118.852 38.315 118.458 38.7096C118.074 39.1043 117.882 39.675 117.882 40.4216V44.6456H116.186ZM138.893 44.8376C138.136 44.8376 137.458 44.683 136.861 44.3736C136.274 44.0643 135.81 43.595 135.469 42.9656C135.128 42.3256 134.957 41.5203 134.957 40.5496V33.4456H136.653V40.6456C136.653 41.499 136.856 42.1603 137.261 42.6296C137.666 43.0883 138.221 43.3176 138.925 43.3176C139.629 43.3176 140.184 43.0883 140.589 42.6296C140.994 42.1603 141.197 41.499 141.197 40.6456V33.4456H142.893V40.5496C142.893 41.5203 142.717 42.3256 142.365 42.9656C142.013 43.595 141.533 44.0643 140.925 44.3736C140.328 44.683 139.65 44.8376 138.893 44.8376ZM145.239 44.6456V43.1416H147.671V34.9496H145.271V33.4456H151.767V34.9496H149.367V43.1416H151.799V44.6456H145.239ZM154.481 46.0856L160.017 32.4856H161.745L156.193 46.0856H154.481ZM167.674 44.8376C166.917 44.8376 166.24 44.683 165.642 44.3736C165.056 44.0643 164.592 43.595 164.25 42.9656C163.909 42.3256 163.738 41.5203 163.738 40.5496V33.4456H165.434V40.6456C165.434 41.499 165.637 42.1603 166.042 42.6296C166.448 43.0883 167.002 43.3176 167.706 43.3176C168.41 43.3176 168.965 43.0883 169.37 42.6296C169.776 42.1603 169.978 41.499 169.978 40.6456V33.4456H171.674V40.5496C171.674 41.5203 171.498 42.3256 171.146 42.9656C170.794 43.595 170.314 44.0643 169.706 44.3736C169.109 44.683 168.432 44.8376 167.674 44.8376ZM172.996 44.6456L176.34 39.0456L172.964 33.4456H174.932L177.348 37.4776L179.7 33.4456H181.604L178.26 38.9976L181.636 44.6456H179.7L177.252 40.5656L174.932 44.6456H172.996Z" fill="#3F3F3F"/>
</g>
<defs>
<filter id="filter0_d_62_2541" x="181.972" y="1.19209e-06" width="39.881" height="40.592" filterUnits="userSpaceOnUse" color-interpolation-filters="sRGB">
<feFlood flood-opacity="0" result="BackgroundImageFix"/>
<feColorMatrix in="SourceAlpha" type="matrix" values="0 0 0 0 0 0 0 0 0 0 0 0 0 0 0 0 0 0 127 0" result="hardAlpha"/>
<feOffset dy="2.20748"/>
<feGaussianBlur stdDeviation="3.31121"/>
<feColorMatrix type="matrix" values="0 0 0 0 0 0 0 0 0 0 0 0 0 0 0 0 0 0 0.35 0"/>
<feBlend mode="normal" in2="BackgroundImageFix" result="effect1_dropShadow_62_2541"/>
<feBlend mode="normal" in="SourceGraphic" in2="effect1_dropShadow_62_2541" result="shape"/>
</filter>
<filter id="filter1_dd_62_2541" x="0" y="22.6456" width="202" height="40" filterUnits="userSpaceOnUse" color-interpolation-filters="sRGB">
<feFlood flood-opacity="0" result="BackgroundImageFix"/>
<feColorMatrix in="SourceAlpha" type="matrix" values="0 0 0 0 0 0 0 0 0 0 0 0 0 0 0 0 0 0 127 0" result="hardAlpha"/>
<feMorphology radius="1" operator="erode" in="SourceAlpha" result="effect1_dropShadow_62_2541"/>
<feOffset dy="4"/>
<feGaussianBlur stdDeviation="2"/>
<feComposite in2="hardAlpha" operator="out"/>
<feColorMatrix type="matrix" values="0 0 0 0 0.0470588 0 0 0 0 0.0470588 0 0 0 0 0.0509804 0 0 0 0.05 0"/>
<feBlend mode="normal" in2="BackgroundImageFix" result="effect1_dropShadow_62_2541"/>
<feColorMatrix in="SourceAlpha" type="matrix" values="0 0 0 0 0 0 0 0 0 0 0 0 0 0 0 0 0 0 127 0" result="hardAlpha"/>
<feMorphology radius="1" operator="erode" in="SourceAlpha" result="effect2_dropShadow_62_2541"/>
<feOffset dy="4"/>
<feGaussianBlur stdDeviation="2"/>
<feComposite in2="hardAlpha" operator="out"/>
<feColorMatrix type="matrix" values="0 0 0 0 0.0470588 0 0 0 0 0.0470588 0 0 0 0 0.0509804 0 0 0 0.1 0"/>
<feBlend mode="normal" in2="effect1_dropShadow_62_2541" result="effect2_dropShadow_62_2541"/>
<feBlend mode="normal" in="SourceGraphic" in2="effect2_dropShadow_62_2541" result="shape"/>
</filter>
</defs>
</svg>
