<svg width="324" height="64" viewBox="0 0 324 64" fill="none" xmlns="http://www.w3.org/2000/svg">
<g filter="url(#filter0_d_62_2546)">
<path d="M26.9408 16.792L10.1531 8.64562L14.9899 25.9936L19.0387 19.0525L26.9408 16.792Z" fill="#CEFE20"/>
<path d="M9.06255 8.94991L13.8995 26.2978L14.6186 28.8775L15.9685 26.5641L19.7875 20.0159L27.2517 17.8809L30.0997 17.0658L27.4352 15.7736L10.6475 7.62657L8.38738 6.53062L9.06255 8.94991Z" stroke="white" stroke-width="2.26477" stroke-linecap="square"/>
</g>
<g filter="url(#filter1_dd_62_2546)">
<path d="M320.14 39.6456C320.14 30.8091 312.977 23.6456 304.14 23.6456H44.1401C35.3036 23.6456 28.1401 30.8091 28.1401 39.6456V40.6456C28.1401 49.4822 35.3036 56.6456 44.1401 56.6456H304.14C312.977 56.6456 320.14 49.4822 320.14 40.6456V39.6456Z" fill="#CEFE20" shape-rendering="crispEdges"/>
<path d="M45.6601 45.6456V44.1416H48.0921V35.9496H45.6921V34.4456H52.1881V35.9496H49.7881V44.1416H52.2201V45.6456H45.6601ZM67.4076 45.8376C66.7783 45.8376 66.2503 45.731 65.8236 45.5176C65.397 45.2936 65.077 45.0003 64.8636 44.6376C64.6503 44.2643 64.5436 43.859 64.5436 43.4216C64.5436 42.643 64.8263 42.035 65.3916 41.5976C65.9676 41.1603 66.7783 40.9416 67.8236 40.9416H69.8716V40.7656C69.8716 39.571 69.317 38.9736 68.2076 38.9736C67.749 38.9736 67.3596 39.075 67.0396 39.2776C66.7303 39.4696 66.5223 39.7843 66.4156 40.2216H64.7196C64.805 39.3896 65.1623 38.7336 65.7916 38.2536C66.4316 37.763 67.237 37.5176 68.2076 37.5176C69.381 37.5176 70.2343 37.8056 70.7676 38.3816C71.301 38.9576 71.5676 39.7523 71.5676 40.7656V45.6456H70.1276L69.9836 44.4776H69.8716C69.637 44.851 69.3436 45.171 68.9916 45.4376C68.6396 45.7043 68.1116 45.8376 67.4076 45.8376ZM67.7276 44.4136C68.421 44.4136 68.9383 44.2056 69.2796 43.7896C69.6316 43.363 69.8236 42.8243 69.8556 42.1736H67.9996C67.3916 42.1736 66.9596 42.275 66.7036 42.4776C66.4583 42.6696 66.3356 42.9416 66.3356 43.2936C66.3356 43.6456 66.4583 43.923 66.7036 44.1256C66.9596 44.3176 67.301 44.4136 67.7276 44.4136ZM73.3214 45.6456V37.7096H74.7294L74.8734 38.6376H74.9534C75.0921 38.307 75.3054 38.0403 75.5934 37.8376C75.8814 37.6243 76.2227 37.5176 76.6174 37.5176C77.0014 37.5176 77.3374 37.6136 77.6254 37.8056C77.9134 37.9976 78.1267 38.275 78.2654 38.6376H78.3294C78.4681 38.3176 78.6867 38.051 78.9854 37.8376C79.2841 37.6243 79.6521 37.5176 80.0894 37.5176C80.6761 37.5176 81.1187 37.7096 81.4174 38.0936C81.7267 38.4776 81.8814 39.0163 81.8814 39.7096V45.6456H80.2494V40.0456C80.2494 39.7256 80.1801 39.475 80.0414 39.2936C79.9134 39.1016 79.7054 39.0056 79.4174 39.0056C79.1294 39.0056 78.8894 39.1176 78.6974 39.3416C78.5161 39.5656 78.4254 39.8803 78.4254 40.2856V45.6456H76.7774V40.0456C76.7774 39.7256 76.7134 39.475 76.5854 39.2936C76.4574 39.1016 76.2494 39.0056 75.9614 39.0056C75.6734 39.0056 75.4334 39.1176 75.2414 39.3416C75.0494 39.5656 74.9534 39.8803 74.9534 40.2856V45.6456H73.3214ZM96.1889 45.8376C95.5596 45.8376 95.0316 45.731 94.6049 45.5176C94.1782 45.2936 93.8582 45.0003 93.6449 44.6376C93.4316 44.2643 93.3249 43.859 93.3249 43.4216C93.3249 42.643 93.6076 42.035 94.1729 41.5976C94.7489 41.1603 95.5596 40.9416 96.6049 40.9416H98.6529V40.7656C98.6529 39.571 98.0982 38.9736 96.9889 38.9736C96.5302 38.9736 96.1409 39.075 95.8209 39.2776C95.5116 39.4696 95.3036 39.7843 95.1969 40.2216H93.5009C93.5862 39.3896 93.9436 38.7336 94.5729 38.2536C95.2129 37.763 96.0182 37.5176 96.9889 37.5176C98.1622 37.5176 99.0156 37.8056 99.5489 38.3816C100.082 38.9576 100.349 39.7523 100.349 40.7656V45.6456H98.9089L98.7649 44.4776H98.6529C98.4182 44.851 98.1249 45.171 97.7729 45.4376C97.4209 45.7043 96.8929 45.8376 96.1889 45.8376ZM96.5089 44.4136C97.2022 44.4136 97.7196 44.2056 98.0609 43.7896C98.4129 43.363 98.6049 42.8243 98.6369 42.1736H96.7809C96.1729 42.1736 95.7409 42.275 95.4849 42.4776C95.2396 42.6696 95.1169 42.9416 95.1169 43.2936C95.1169 43.6456 95.2396 43.923 95.4849 44.1256C95.7409 44.3176 96.0822 44.4136 96.5089 44.4136ZM116.528 45.8376C115.942 45.8376 115.446 45.7203 115.04 45.4856C114.646 45.2403 114.342 44.9043 114.128 44.4776H114.032L113.888 45.6456H112.432V34.1256H114.128V38.7336C114.32 38.4136 114.624 38.131 115.04 37.8856C115.456 37.6403 115.952 37.5176 116.528 37.5176C117.19 37.5176 117.782 37.6776 118.304 37.9976C118.827 38.307 119.238 38.771 119.536 39.3896C119.846 40.0083 120 40.771 120 41.6776C120 42.5843 119.846 43.347 119.536 43.9656C119.238 44.5843 118.827 45.0536 118.304 45.3736C117.782 45.683 117.19 45.8376 116.528 45.8376ZM116.176 44.2216C116.784 44.2216 117.286 44.0136 117.68 43.5976C118.086 43.171 118.288 42.5363 118.288 41.6936C118.288 40.8403 118.086 40.2003 117.68 39.7736C117.286 39.347 116.784 39.1336 116.176 39.1336C115.568 39.1336 115.062 39.347 114.656 39.7736C114.262 40.1896 114.064 40.8243 114.064 41.6776C114.064 42.5203 114.262 43.155 114.656 43.5816C115.062 44.0083 115.568 44.2216 116.176 44.2216ZM122.122 45.6456V44.1736H124.058V39.7096C124.058 39.3576 123.887 39.1816 123.546 39.1816H122.282V37.7096H124.186C124.623 37.7096 124.981 37.8376 125.258 38.0936C125.535 38.339 125.674 38.6856 125.674 39.1336V39.3256H125.754C125.871 38.7283 126.122 38.2803 126.506 37.9816C126.901 37.6723 127.471 37.5176 128.218 37.5176H129.45V39.3096H127.722C127.093 39.3096 126.607 39.5283 126.266 39.9656C125.925 40.403 125.754 40.9256 125.754 41.5336V44.1736H128.218V45.6456H122.122ZM134.564 45.8376C133.935 45.8376 133.407 45.731 132.98 45.5176C132.553 45.2936 132.233 45.0003 132.02 44.6376C131.807 44.2643 131.7 43.859 131.7 43.4216C131.7 42.643 131.983 42.035 132.548 41.5976C133.124 41.1603 133.935 40.9416 134.98 40.9416H137.028V40.7656C137.028 39.571 136.473 38.9736 135.364 38.9736C134.905 38.9736 134.516 39.075 134.196 39.2776C133.887 39.4696 133.679 39.7843 133.572 40.2216H131.876C131.961 39.3896 132.319 38.7336 132.948 38.2536C133.588 37.763 134.393 37.5176 135.364 37.5176C136.537 37.5176 137.391 37.8056 137.924 38.3816C138.457 38.9576 138.724 39.7523 138.724 40.7656V45.6456H137.284L137.14 44.4776H137.028C136.793 44.851 136.5 45.171 136.148 45.4376C135.796 45.7043 135.268 45.8376 134.564 45.8376ZM134.884 44.4136C135.577 44.4136 136.095 44.2056 136.436 43.7896C136.788 43.363 136.98 42.8243 137.012 42.1736H135.156C134.548 42.1736 134.116 42.275 133.86 42.4776C133.615 42.6696 133.492 42.9416 133.492 43.2936C133.492 43.6456 133.615 43.923 133.86 44.1256C134.116 44.3176 134.457 44.4136 134.884 44.4136ZM141.326 45.6456V37.7096H142.798L142.942 38.8936H143.022C143.235 38.5096 143.566 38.1843 144.014 37.9176C144.462 37.651 144.979 37.5176 145.566 37.5176C146.536 37.5176 147.267 37.811 147.758 38.3976C148.248 38.9843 148.494 39.8483 148.494 40.9896V45.6456H146.798V41.1976C146.798 40.5363 146.659 40.0243 146.382 39.6616C146.104 39.299 145.667 39.1176 145.07 39.1176C144.483 39.1176 143.992 39.315 143.598 39.7096C143.214 40.1043 143.022 40.675 143.022 41.4216V45.6456H141.326ZM154.039 45.8376C153.378 45.8376 152.786 45.683 152.263 45.3736C151.741 45.0536 151.325 44.5843 151.015 43.9656C150.717 43.347 150.567 42.5843 150.567 41.6776C150.567 40.771 150.722 40.0083 151.031 39.3896C151.341 38.771 151.757 38.307 152.279 37.9976C152.813 37.6776 153.405 37.5176 154.055 37.5176C154.663 37.5176 155.165 37.635 155.559 37.8696C155.954 38.0936 156.247 38.3816 156.439 38.7336V34.1256H158.135V45.6456H156.679L156.535 44.4776H156.439C156.226 44.8936 155.922 45.2243 155.527 45.4696C155.143 45.715 154.647 45.8376 154.039 45.8376ZM154.391 44.2216C154.999 44.2216 155.501 44.0083 155.895 43.5816C156.301 43.155 156.503 42.5203 156.503 41.6776C156.503 40.8243 156.301 40.1896 155.895 39.7736C155.501 39.347 154.999 39.1336 154.391 39.1336C153.783 39.1336 153.277 39.347 152.871 39.7736C152.477 40.2003 152.279 40.8403 152.279 41.6936C152.279 42.5363 152.477 43.171 152.871 43.5976C153.277 44.0136 153.783 44.2216 154.391 44.2216ZM163.905 36.4936C163.532 36.4936 163.217 36.3763 162.961 36.1416C162.716 35.8963 162.593 35.5976 162.593 35.2456C162.593 34.8936 162.716 34.6003 162.961 34.3656C163.217 34.131 163.532 34.0136 163.905 34.0136C164.289 34.0136 164.604 34.131 164.849 34.3656C165.105 34.6003 165.233 34.8936 165.233 35.2456C165.233 35.5976 165.105 35.8963 164.849 36.1416C164.604 36.3763 164.289 36.4936 163.905 36.4936ZM160.721 45.6456V44.1736H163.217V39.7096C163.217 39.3576 163.046 39.1816 162.705 39.1816H160.945V37.7096H163.009C163.67 37.7096 164.15 37.8643 164.449 38.1736C164.758 38.4723 164.913 38.9523 164.913 39.6136V44.1736H167.409V45.6456H160.721ZM170.107 45.6456V37.7096H171.579L171.723 38.8936H171.803C172.016 38.5096 172.347 38.1843 172.795 37.9176C173.243 37.651 173.76 37.5176 174.347 37.5176C175.318 37.5176 176.048 37.811 176.539 38.3976C177.03 38.9843 177.275 39.8483 177.275 40.9896V45.6456H175.579V41.1976C175.579 40.5363 175.44 40.0243 175.163 39.6616C174.886 39.299 174.448 39.1176 173.851 39.1176C173.264 39.1176 172.774 39.315 172.379 39.7096C171.995 40.1043 171.803 40.675 171.803 41.4216V45.6456H170.107ZM183.077 43.3576C182.586 43.3576 182.133 43.2776 181.717 43.1176L181.317 43.5976C181.189 43.7576 181.151 43.9123 181.205 44.0616C181.269 44.2003 181.413 44.2696 181.637 44.2696H183.733C184.661 44.2696 185.407 44.467 185.973 44.8616C186.549 45.2456 186.837 45.8376 186.837 46.6376C186.837 47.139 186.709 47.5923 186.453 47.9976C186.207 48.4136 185.807 48.7443 185.253 48.9896C184.709 49.235 183.989 49.3576 183.093 49.3576C181.962 49.3576 181.05 49.1443 180.357 48.7176C179.674 48.3016 179.333 47.6723 179.333 46.8296C179.333 46.531 179.402 46.2536 179.541 45.9976C179.69 45.7523 179.882 45.5283 180.117 45.3256C179.829 45.1123 179.653 44.8136 179.589 44.4296C179.535 44.035 179.653 43.6563 179.941 43.2936L180.645 42.3976C180.143 41.8643 179.893 41.2083 179.893 40.4296C179.893 39.907 180.015 39.427 180.261 38.9896C180.517 38.5416 180.879 38.1843 181.349 37.9176C181.829 37.651 182.405 37.5176 183.077 37.5176C183.514 37.5176 183.919 37.5816 184.293 37.7096H187.285V38.8296L185.893 38.9096V39.0536C186.117 39.4696 186.229 39.9283 186.229 40.4296C186.229 40.9523 186.101 41.4376 185.845 41.8856C185.599 42.3336 185.242 42.691 184.773 42.9576C184.303 43.2243 183.738 43.3576 183.077 43.3576ZM183.077 41.9976C183.546 41.9976 183.93 41.859 184.229 41.5816C184.538 41.3043 184.693 40.9203 184.693 40.4296C184.693 39.9603 184.538 39.587 184.229 39.3096C183.93 39.0323 183.546 38.8936 183.077 38.8936C182.597 38.8936 182.202 39.0323 181.893 39.3096C181.594 39.587 181.445 39.9603 181.445 40.4296C181.445 40.9203 181.594 41.3043 181.893 41.5816C182.202 41.859 182.597 41.9976 183.077 41.9976ZM180.933 46.7016C180.933 47.1283 181.135 47.443 181.541 47.6456C181.957 47.8483 182.474 47.9496 183.093 47.9496C183.754 47.9496 184.277 47.8376 184.661 47.6136C185.045 47.3896 185.237 47.075 185.237 46.6696C185.237 46.3283 185.098 46.0563 184.821 45.8536C184.543 45.6616 184.074 45.5656 183.413 45.5656H181.541C181.135 45.8856 180.933 46.2643 180.933 46.7016ZM202.008 45.8376C201.347 45.8376 200.755 45.683 200.232 45.3736C199.709 45.0536 199.293 44.5843 198.984 43.9656C198.685 43.347 198.536 42.5843 198.536 41.6776C198.536 40.771 198.691 40.0083 199 39.3896C199.309 38.771 199.725 38.307 200.248 37.9976C200.781 37.6776 201.373 37.5176 202.024 37.5176C202.632 37.5176 203.133 37.635 203.528 37.8696C203.923 38.0936 204.216 38.3816 204.408 38.7336V34.1256H206.104V45.6456H204.648L204.504 44.4776H204.408C204.195 44.8936 203.891 45.2243 203.496 45.4696C203.112 45.715 202.616 45.8376 202.008 45.8376ZM202.36 44.2216C202.968 44.2216 203.469 44.0083 203.864 43.5816C204.269 43.155 204.472 42.5203 204.472 41.6776C204.472 40.8243 204.269 40.1896 203.864 39.7736C203.469 39.347 202.968 39.1336 202.36 39.1336C201.752 39.1336 201.245 39.347 200.84 39.7736C200.445 40.2003 200.248 40.8403 200.248 41.6936C200.248 42.5363 200.445 43.171 200.84 43.5976C201.245 44.0136 201.752 44.2216 202.36 44.2216ZM212.13 45.8376C211.362 45.8376 210.685 45.667 210.098 45.3256C209.511 44.9736 209.053 44.4883 208.722 43.8696C208.391 43.251 208.226 42.531 208.226 41.7096C208.226 40.8776 208.386 40.147 208.706 39.5176C209.037 38.8883 209.495 38.3976 210.082 38.0456C210.679 37.6936 211.367 37.5176 212.146 37.5176C212.914 37.5176 213.575 37.6936 214.13 38.0456C214.685 38.387 215.111 38.8456 215.41 39.4216C215.719 39.9976 215.874 40.6323 215.874 41.3256C215.874 41.4323 215.874 41.5496 215.874 41.6776C215.874 41.795 215.869 41.9283 215.858 42.0776H209.89C209.943 42.8136 210.183 43.3736 210.61 43.7576C211.037 44.131 211.538 44.3176 212.114 44.3176C212.615 44.3176 213.01 44.2163 213.298 44.0136C213.597 43.8003 213.815 43.5123 213.954 43.1496H215.666C215.474 43.907 215.074 44.547 214.466 45.0696C213.858 45.5816 213.079 45.8376 212.13 45.8376ZM212.13 38.9896C211.607 38.9896 211.143 39.1496 210.738 39.4696C210.333 39.779 210.071 40.2163 209.954 40.7816H214.178C214.135 40.2483 213.927 39.8163 213.554 39.4856C213.181 39.155 212.706 38.9896 212.13 38.9896ZM221.692 45.8376C220.646 45.8376 219.814 45.5923 219.196 45.1016C218.577 44.611 218.225 43.9603 218.14 43.1496H219.884C219.948 43.523 220.134 43.827 220.444 44.0616C220.764 44.2963 221.185 44.4136 221.708 44.4136C222.209 44.4136 222.593 44.3123 222.86 44.1096C223.137 43.8963 223.276 43.651 223.276 43.3736C223.276 42.9683 223.11 42.691 222.78 42.5416C222.46 42.3923 221.985 42.2803 221.356 42.2056C220.812 42.1416 220.316 42.019 219.868 41.8376C219.43 41.6456 219.084 41.3896 218.828 41.0696C218.572 40.739 218.444 40.3283 218.444 39.8376C218.444 39.1443 218.716 38.5843 219.26 38.1576C219.804 37.731 220.561 37.5176 221.532 37.5176C222.502 37.5176 223.254 37.7363 223.788 38.1736C224.321 38.611 224.63 39.2083 224.716 39.9656H223.084C223.041 39.6456 222.876 39.395 222.588 39.2136C222.3 39.0216 221.942 38.9256 221.516 38.9256C221.078 38.9256 220.732 39.011 220.476 39.1816C220.22 39.3416 220.092 39.555 220.092 39.8216C220.092 40.3976 220.71 40.7496 221.948 40.8776C222.534 40.9416 223.057 41.0536 223.516 41.2136C223.974 41.363 224.337 41.603 224.604 41.9336C224.87 42.2536 225.004 42.707 225.004 43.2936C225.014 43.7736 224.876 44.2056 224.588 44.5896C224.31 44.9736 223.921 45.2776 223.42 45.5016C222.929 45.7256 222.353 45.8376 221.692 45.8376ZM231.061 36.4936C230.688 36.4936 230.373 36.3763 230.117 36.1416C229.872 35.8963 229.749 35.5976 229.749 35.2456C229.749 34.8936 229.872 34.6003 230.117 34.3656C230.373 34.131 230.688 34.0136 231.061 34.0136C231.445 34.0136 231.76 34.131 232.005 34.3656C232.261 34.6003 232.389 34.8936 232.389 35.2456C232.389 35.5976 232.261 35.8963 232.005 36.1416C231.76 36.3763 231.445 36.4936 231.061 36.4936ZM227.877 45.6456V44.1736H230.373V39.7096C230.373 39.3576 230.203 39.1816 229.861 39.1816H228.101V37.7096H230.165C230.827 37.7096 231.307 37.8643 231.605 38.1736C231.915 38.4723 232.069 38.9523 232.069 39.6136V44.1736H234.565V45.6456H227.877ZM240.639 43.3576C240.148 43.3576 239.695 43.2776 239.279 43.1176L238.879 43.5976C238.751 43.7576 238.714 43.9123 238.767 44.0616C238.831 44.2003 238.975 44.2696 239.199 44.2696H241.295C242.223 44.2696 242.97 44.467 243.535 44.8616C244.111 45.2456 244.399 45.8376 244.399 46.6376C244.399 47.139 244.271 47.5923 244.015 47.9976C243.77 48.4136 243.37 48.7443 242.815 48.9896C242.271 49.235 241.551 49.3576 240.655 49.3576C239.524 49.3576 238.612 49.1443 237.919 48.7176C237.236 48.3016 236.895 47.6723 236.895 46.8296C236.895 46.531 236.964 46.2536 237.103 45.9976C237.252 45.7523 237.444 45.5283 237.679 45.3256C237.391 45.1123 237.215 44.8136 237.151 44.4296C237.098 44.035 237.215 43.6563 237.503 43.2936L238.207 42.3976C237.706 41.8643 237.455 41.2083 237.455 40.4296C237.455 39.907 237.578 39.427 237.823 38.9896C238.079 38.5416 238.442 38.1843 238.911 37.9176C239.391 37.651 239.967 37.5176 240.639 37.5176C241.076 37.5176 241.482 37.5816 241.855 37.7096H244.847V38.8296L243.455 38.9096V39.0536C243.679 39.4696 243.791 39.9283 243.791 40.4296C243.791 40.9523 243.663 41.4376 243.407 41.8856C243.162 42.3336 242.804 42.691 242.335 42.9576C241.866 43.2243 241.3 43.3576 240.639 43.3576ZM240.639 41.9976C241.108 41.9976 241.492 41.859 241.791 41.5816C242.1 41.3043 242.255 40.9203 242.255 40.4296C242.255 39.9603 242.1 39.587 241.791 39.3096C241.492 39.0323 241.108 38.8936 240.639 38.8936C240.159 38.8936 239.764 39.0323 239.455 39.3096C239.156 39.587 239.007 39.9603 239.007 40.4296C239.007 40.9203 239.156 41.3043 239.455 41.5816C239.764 41.859 240.159 41.9976 240.639 41.9976ZM238.495 46.7016C238.495 47.1283 238.698 47.443 239.103 47.6456C239.519 47.8483 240.036 47.9496 240.655 47.9496C241.316 47.9496 241.839 47.8376 242.223 47.6136C242.607 47.3896 242.799 47.075 242.799 46.6696C242.799 46.3283 242.66 46.0563 242.383 45.8536C242.106 45.6616 241.636 45.5656 240.975 45.5656H239.103C238.698 45.8856 238.495 46.2643 238.495 46.7016ZM246.857 45.6456V37.7096H248.329L248.473 38.8936H248.553C248.766 38.5096 249.097 38.1843 249.545 37.9176C249.993 37.651 250.51 37.5176 251.097 37.5176C252.068 37.5176 252.798 37.811 253.289 38.3976C253.78 38.9843 254.025 39.8483 254.025 40.9896V45.6456H252.329V41.1976C252.329 40.5363 252.19 40.0243 251.913 39.6616C251.636 39.299 251.198 39.1176 250.601 39.1176C250.014 39.1176 249.524 39.315 249.129 39.7096C248.745 40.1043 248.553 40.675 248.553 41.4216V45.6456H246.857ZM270.46 45.6456C269.682 45.6456 269.063 45.459 268.604 45.0856C268.146 44.7016 267.916 44.0243 267.916 43.0536V39.1496H265.916V37.7096H267.1C267.644 37.7096 267.964 37.443 268.06 36.9096L268.3 35.6296H269.612V37.7096H272.748V39.1496H269.612V43.0216C269.612 43.4376 269.703 43.731 269.884 43.9016C270.076 44.0616 270.402 44.1416 270.86 44.1416H272.716V45.6456H270.46ZM279.19 45.8376C278.433 45.8376 277.755 45.667 277.158 45.3256C276.561 44.9843 276.091 44.5043 275.75 43.8856C275.409 43.2563 275.238 42.5203 275.238 41.6776C275.238 40.835 275.409 40.1043 275.75 39.4856C276.091 38.8563 276.561 38.371 277.158 38.0296C277.755 37.6883 278.438 37.5176 279.206 37.5176C279.974 37.5176 280.651 37.6883 281.238 38.0296C281.835 38.371 282.299 38.8563 282.63 39.4856C282.971 40.1043 283.142 40.835 283.142 41.6776C283.142 42.5203 282.971 43.2563 282.63 43.8856C282.289 44.5043 281.819 44.9843 281.222 45.3256C280.635 45.667 279.958 45.8376 279.19 45.8376ZM279.19 44.2216C279.595 44.2216 279.969 44.131 280.31 43.9496C280.651 43.7683 280.923 43.491 281.126 43.1176C281.339 42.7336 281.446 42.2536 281.446 41.6776C281.446 41.091 281.339 40.611 281.126 40.2376C280.923 39.8643 280.651 39.587 280.31 39.4056C279.979 39.2243 279.611 39.1336 279.206 39.1336C278.801 39.1336 278.427 39.2243 278.086 39.4056C277.745 39.587 277.467 39.8643 277.254 40.2376C277.051 40.611 276.95 41.091 276.95 41.6776C276.95 42.5523 277.169 43.1976 277.606 43.6136C278.054 44.019 278.582 44.2216 279.19 44.2216ZM288.784 45.8376C288.027 45.8376 287.349 45.667 286.752 45.3256C286.155 44.9843 285.685 44.5043 285.344 43.8856C285.003 43.2563 284.832 42.5203 284.832 41.6776C284.832 40.835 285.003 40.1043 285.344 39.4856C285.685 38.8563 286.155 38.371 286.752 38.0296C287.349 37.6883 288.032 37.5176 288.8 37.5176C289.568 37.5176 290.245 37.6883 290.832 38.0296C291.429 38.371 291.893 38.8563 292.224 39.4856C292.565 40.1043 292.736 40.835 292.736 41.6776C292.736 42.5203 292.565 43.2563 292.224 43.8856C291.883 44.5043 291.413 44.9843 290.816 45.3256C290.229 45.667 289.552 45.8376 288.784 45.8376ZM288.784 44.2216C289.189 44.2216 289.563 44.131 289.904 43.9496C290.245 43.7683 290.517 43.491 290.72 43.1176C290.933 42.7336 291.04 42.2536 291.04 41.6776C291.04 41.091 290.933 40.611 290.72 40.2376C290.517 39.8643 290.245 39.587 289.904 39.4056C289.573 39.2243 289.205 39.1336 288.8 39.1336C288.395 39.1336 288.021 39.2243 287.68 39.4056C287.339 39.587 287.061 39.8643 286.848 40.2376C286.645 40.611 286.544 41.091 286.544 41.6776C286.544 42.5523 286.763 43.1976 287.2 43.6136C287.648 44.019 288.176 44.2216 288.784 44.2216ZM297.578 41.5656L297.322 34.4456H299.434L299.162 41.5656H297.578ZM298.394 45.7416C297.999 45.7416 297.663 45.6136 297.386 45.3576C297.108 45.091 296.97 44.771 296.97 44.3976C296.97 44.0243 297.108 43.7096 297.386 43.4536C297.663 43.1976 297.999 43.0696 298.394 43.0696C298.799 43.0696 299.135 43.1976 299.402 43.4536C299.679 43.7096 299.818 44.0243 299.818 44.3976C299.818 44.771 299.679 45.091 299.402 45.3576C299.135 45.6136 298.799 45.7416 298.394 45.7416Z" fill="#3F3F3F"/>
</g>
<defs>
<filter id="filter0_d_62_2546" x="-0.000115395" y="1.19209e-06" width="39.8808" height="40.592" filterUnits="userSpaceOnUse" color-interpolation-filters="sRGB">
<feFlood flood-opacity="0" result="BackgroundImageFix"/>
<feColorMatrix in="SourceAlpha" type="matrix" values="0 0 0 0 0 0 0 0 0 0 0 0 0 0 0 0 0 0 127 0" result="hardAlpha"/>
<feOffset dy="2.20748"/>
<feGaussianBlur stdDeviation="3.31121"/>
<feColorMatrix type="matrix" values="0 0 0 0 0 0 0 0 0 0 0 0 0 0 0 0 0 0 0.35 0"/>
<feBlend mode="normal" in2="BackgroundImageFix" result="effect1_dropShadow_62_2546"/>
<feBlend mode="normal" in="SourceGraphic" in2="effect1_dropShadow_62_2546" result="shape"/>
</filter>
<filter id="filter1_dd_62_2546" x="25.1401" y="23.6456" width="298" height="40" filterUnits="userSpaceOnUse" color-interpolation-filters="sRGB">
<feFlood flood-opacity="0" result="BackgroundImageFix"/>
<feColorMatrix in="SourceAlpha" type="matrix" values="0 0 0 0 0 0 0 0 0 0 0 0 0 0 0 0 0 0 127 0" result="hardAlpha"/>
<feMorphology radius="1" operator="erode" in="SourceAlpha" result="effect1_dropShadow_62_2546"/>
<feOffset dy="4"/>
<feGaussianBlur stdDeviation="2"/>
<feComposite in2="hardAlpha" operator="out"/>
<feColorMatrix type="matrix" values="0 0 0 0 0.0470588 0 0 0 0 0.0470588 0 0 0 0 0.0509804 0 0 0 0.05 0"/>
<feBlend mode="normal" in2="BackgroundImageFix" result="effect1_dropShadow_62_2546"/>
<feColorMatrix in="SourceAlpha" type="matrix" values="0 0 0 0 0 0 0 0 0 0 0 0 0 0 0 0 0 0 127 0" result="hardAlpha"/>
<feMorphology radius="1" operator="erode" in="SourceAlpha" result="effect2_dropShadow_62_2546"/>
<feOffset dy="4"/>
<feGaussianBlur stdDeviation="2"/>
<feComposite in2="hardAlpha" operator="out"/>
<feColorMatrix type="matrix" values="0 0 0 0 0.0470588 0 0 0 0 0.0470588 0 0 0 0 0.0509804 0 0 0 0.1 0"/>
<feBlend mode="normal" in2="effect1_dropShadow_62_2546" result="effect2_dropShadow_62_2546"/>
<feBlend mode="normal" in="SourceGraphic" in2="effect2_dropShadow_62_2546" result="shape"/>
</filter>
</defs>
</svg>
