<svg width="224" height="22" viewBox="0 0 224 22" fill="none" xmlns="http://www.w3.org/2000/svg">
<path d="M18.7116 19.2893C18.9627 19.2893 19.0883 19.4149 19.0883 19.666V20.4195C19.0883 20.6707 18.9627 20.7963 18.7116 20.7963H11.0009C10.7497 20.7963 10.6241 20.6707 10.6241 20.4195V19.666C10.6241 19.4149 10.7497 19.2893 11.0009 19.2893H11.1516C11.5534 19.2893 11.8799 19.1805 12.1311 18.9628C12.3823 18.7451 12.5079 18.4605 12.5079 18.1088C12.5079 17.7237 12.3572 17.3218 12.0558 16.9032L8.38879 11.7293L6.2539 14.04V16.9032C6.2539 18.4939 6.81483 19.2893 7.93669 19.2893H8.08739C8.33855 19.2893 8.46413 19.4149 8.46413 19.666V20.4195C8.46413 20.6707 8.33855 20.7963 8.08739 20.7963H0.376693C0.12553 20.7963 -5.16211e-05 20.6707 -5.16211e-05 20.4195V19.666C-5.16211e-05 19.4149 0.12553 19.2893 0.376693 19.2893H0.552507C1.67437 19.2893 2.2353 18.4939 2.2353 16.9032V5.85208C2.2353 4.26138 1.68274 3.46603 0.577623 3.46603H0.376693C0.12553 3.46603 -5.16211e-05 3.34045 -5.16211e-05 3.08929V2.3358C-5.16211e-05 2.08464 0.12553 1.95905 0.376693 1.95905H8.11251C8.36367 1.95905 8.48925 2.08464 8.48925 2.3358V3.08929C8.48925 3.34045 8.36367 3.46603 8.11251 3.46603H7.93669C6.81483 3.46603 6.2539 4.26975 6.2539 5.87719V10.8251L11.9553 4.52092C12.0558 4.42045 12.1227 4.31998 12.1562 4.21952C12.1897 4.10231 12.2065 4.00184 12.2065 3.91812C12.2065 3.61673 12.039 3.46603 11.7041 3.46603H11.1767C10.959 3.46603 10.8502 3.34045 10.8502 3.08929V2.3358C10.8502 2.08464 10.9758 1.95905 11.2269 1.95905H17.5813C17.8325 1.95905 17.9581 2.08464 17.9581 2.3358V3.08929C17.9581 3.34045 17.8493 3.46603 17.6316 3.46603H17.3302C16.8279 3.46603 16.3925 3.57487 16.0241 3.79254C15.6558 4.01022 15.1618 4.45394 14.5423 5.12371L10.8502 9.09208L16.0744 16.9032C16.4595 17.4893 16.7693 17.9498 17.0037 18.2846C17.2381 18.6028 17.4306 18.8372 17.5813 18.9879C17.732 19.1218 17.8744 19.2056 18.0083 19.2391C18.159 19.2725 18.3432 19.2893 18.5609 19.2893H18.7116ZM26.7392 19.2893C26.9903 19.2893 27.1159 19.4149 27.1159 19.666V20.4195C27.1159 20.6707 26.9736 20.7963 26.6889 20.7963H19.581C19.2964 20.7963 19.1541 20.6707 19.1541 20.4195V19.666C19.1541 19.4149 19.2796 19.2893 19.5308 19.2893H19.581C20.2006 19.2893 20.6527 19.0632 20.9373 18.6111C21.2387 18.1423 21.3894 17.573 21.3894 16.9032V14.2409C21.3894 13.8558 21.3559 13.4707 21.2889 13.0856C21.2387 12.7005 21.1131 12.3656 20.9122 12.0809C20.7113 11.7963 20.3764 11.6288 19.9075 11.5786C19.7066 11.5618 19.6061 11.453 19.6061 11.2521V10.3981C19.6061 10.2977 19.6396 10.2307 19.7066 10.1972C19.7736 10.147 19.8657 10.1051 19.9829 10.0716C21.3057 9.63626 22.3187 9.19254 23.022 8.74045C23.742 8.27161 24.2694 7.86138 24.6043 7.50975C24.6378 7.47626 24.6713 7.45952 24.7048 7.45952H24.7801C24.8136 7.45952 24.8303 7.47626 24.8303 7.50975V16.8781C24.8303 17.5479 24.981 18.1172 25.2824 18.586C25.5838 19.0549 26.0443 19.2893 26.6638 19.2893H26.7392ZM23.1475 2.21022C23.5829 2.21022 24.0099 2.41952 24.4285 2.83812C24.8471 3.25673 25.0564 3.67533 25.0564 4.09394C25.0564 4.51254 24.8471 4.93115 24.4285 5.34975C24.0099 5.76836 23.5829 5.97766 23.1475 5.97766C22.7457 5.97766 22.3271 5.76836 21.8917 5.34975C21.4731 4.94789 21.2638 4.52929 21.2638 4.09394C21.2638 3.67533 21.4731 3.25673 21.8917 2.83812C22.3103 2.41952 22.7289 2.21022 23.1475 2.21022ZM52.2924 19.2893C52.5436 19.2893 52.6692 19.4149 52.6692 19.666V20.4195C52.6692 20.6707 52.5436 20.7963 52.2924 20.7963H45.2096C44.9585 20.7963 44.8329 20.6707 44.8329 20.4195V19.666C44.8329 19.4149 44.9585 19.2893 45.2096 19.2893H45.3352C45.871 19.2893 46.2227 19.0967 46.3901 18.7116C46.5576 18.3098 46.6413 17.707 46.6413 16.9032V12.6084C46.6413 12.1563 46.5994 11.746 46.5157 11.3777C46.4487 10.9925 46.2813 10.6911 46.0134 10.4735C45.7622 10.2391 45.3687 10.1218 44.8329 10.1218C44.1129 10.1218 43.4766 10.3479 42.9241 10.8C42.3883 11.2521 41.9362 11.8214 41.5678 12.5079V16.9032C41.5678 17.8242 41.7101 18.4521 41.9948 18.787C42.2962 19.1218 42.6896 19.2893 43.1752 19.2893H43.3762C43.6273 19.2893 43.7529 19.4149 43.7529 19.666V20.4195C43.7529 20.6707 43.6273 20.7963 43.3762 20.7963H36.5445C36.2934 20.7963 36.1678 20.6707 36.1678 20.4195V19.666C36.1678 19.4149 36.2934 19.2893 36.5445 19.2893H36.7203C37.072 19.2893 37.3817 19.1218 37.6496 18.787C37.9176 18.4521 38.0515 17.8242 38.0515 16.9032V12.6084C38.0515 11.8046 37.9427 11.1935 37.725 10.7749C37.5241 10.3395 37.0301 10.1218 36.2431 10.1218C35.8245 10.1218 35.4059 10.2307 34.9873 10.4484C34.5687 10.6493 34.2003 10.9172 33.8822 11.2521C33.5641 11.5702 33.3296 11.9135 33.1789 12.2818V16.9032C33.1789 17.573 33.3213 18.1423 33.6059 18.6111C33.9073 19.0632 34.3008 19.2893 34.7864 19.2893H34.8366C35.0878 19.2893 35.2134 19.4149 35.2134 19.666V20.4195C35.2134 20.6707 35.0878 20.7963 34.8366 20.7963H27.7789C27.5278 20.7963 27.4022 20.6707 27.4022 20.4195V19.666C27.4022 19.4149 27.5278 19.2893 27.7789 19.2893H27.8292C28.4487 19.2893 28.9092 19.0632 29.2106 18.6111C29.512 18.1423 29.6627 17.573 29.6627 16.9032V13.7386C29.6627 13.2865 29.6292 12.8511 29.5622 12.4325C29.512 12.0139 29.378 11.6623 29.1603 11.3777C28.9594 11.0763 28.6245 10.9005 28.1557 10.8502C27.9715 10.8335 27.8794 10.7246 27.8794 10.5237V9.66975C27.8794 9.50231 27.9966 9.39347 28.231 9.34324C29.4366 9.15905 30.4664 8.8744 31.3203 8.48929C32.191 8.10417 32.7938 7.7944 33.1287 7.55999C33.2124 7.49301 33.2794 7.45952 33.3296 7.45952H33.3548C33.3883 7.45952 33.405 7.47626 33.405 7.50975C33.405 7.54324 33.3966 7.61022 33.3799 7.71068L32.9529 10.8C33.1873 10.4149 33.4971 10.0046 33.8822 9.56929C34.2673 9.11719 34.7445 8.73208 35.3138 8.41394C35.8831 8.07905 36.5445 7.91161 37.298 7.91161C38.5371 7.91161 39.458 8.14603 40.0608 8.61487C40.6636 9.06696 41.0738 9.65301 41.2915 10.373C41.8608 9.63626 42.5222 9.04185 43.2757 8.58975C44.0459 8.13766 44.925 7.91161 45.9129 7.91161C46.8171 7.91161 47.5455 8.05394 48.098 8.33859C48.6673 8.6065 49.1027 8.97487 49.4041 9.44371C49.7055 9.8958 49.9064 10.4149 50.0069 11.0009C50.1241 11.5702 50.1827 12.1563 50.1827 12.7591V16.9032C50.1827 17.573 50.3334 18.1423 50.6348 18.6111C50.9529 19.0632 51.4134 19.2893 52.0162 19.2893H52.2924ZM68.7721 19.2893C69.0232 19.2893 69.1488 19.4149 69.1488 19.666V20.4195C69.1488 20.6707 69.0232 20.7963 68.7721 20.7963H61.9404C61.6893 20.7963 61.5637 20.6707 61.5637 20.4195V19.666C61.5637 19.4149 61.6893 19.2893 61.9404 19.2893H62.0158C62.4846 19.2893 62.8195 19.0632 63.0204 18.6111C63.2214 18.1423 63.3218 17.573 63.3218 16.9032V12.6084C63.3218 11.7711 63.213 11.1516 62.9953 10.7498C62.7776 10.3311 62.2837 10.1218 61.5134 10.1218C60.8939 10.1218 60.2827 10.306 59.68 10.6744C59.0939 11.0428 58.6837 11.4949 58.4493 12.0307V16.9032C58.4493 17.573 58.6 18.1423 58.9014 18.6111C59.2195 19.0632 59.6883 19.2893 60.3079 19.2893H60.3581C60.6093 19.2893 60.7348 19.4149 60.7348 19.666V20.4195C60.7348 20.6707 60.6093 20.7963 60.3581 20.7963H53.0493C52.7981 20.7963 52.6725 20.6707 52.6725 20.4195V19.666C52.6725 19.4149 52.7981 19.2893 53.0493 19.2893H53.0995C53.719 19.2893 54.1795 19.0632 54.4809 18.6111C54.7823 18.1423 54.933 17.573 54.933 16.9032V7.48464C54.933 7.03254 54.8995 6.59719 54.8325 6.17859C54.7823 5.75998 54.6567 5.40836 54.4558 5.12371C54.2548 4.82231 53.92 4.6465 53.4511 4.59626C53.2502 4.57952 53.1497 4.47068 53.1497 4.26975V3.4158C53.1497 3.31533 53.1748 3.24836 53.2251 3.21487C53.2921 3.16464 53.3841 3.12278 53.5014 3.08929C54.2883 2.82138 55.0837 2.50324 55.8874 2.13487C56.7079 1.7665 57.4865 1.30603 58.2232 0.753473C58.2734 0.719985 58.3153 0.703241 58.3488 0.703241H58.3739C58.4074 0.703241 58.4241 0.719985 58.4241 0.753473V10.3981C58.5748 10.0967 58.826 9.75347 59.1776 9.36836C59.546 8.98324 60.0148 8.64836 60.5841 8.36371C61.1534 8.06231 61.8232 7.91161 62.5934 7.91161C63.3804 7.91161 64.0921 8.03719 64.7283 8.28836C65.3814 8.53952 65.9004 8.98324 66.2855 9.61952C66.6707 10.2391 66.8632 11.1181 66.8632 12.2567V16.9032C66.8632 17.573 67.0139 18.1423 67.3153 18.6111C67.6167 19.0632 68.0772 19.2893 68.6967 19.2893H68.7721ZM74.7146 7.91161C75.669 7.91161 76.5481 8.10417 77.3518 8.48929C78.1723 8.85766 78.8755 9.36836 79.4616 10.0214C80.0476 10.6577 80.4997 11.3777 80.8179 12.1814C81.1527 12.9684 81.3202 13.7888 81.3202 14.6428C81.3202 15.8818 81.0272 16.9953 80.4411 17.9832C79.8551 18.9544 79.0848 19.7246 78.1304 20.2939C77.176 20.8465 76.1379 21.1228 75.016 21.1228C74.0616 21.1228 73.1825 20.9386 72.3788 20.5702C71.5751 20.2018 70.8718 19.7079 70.269 19.0884C69.683 18.4521 69.2225 17.7321 68.8876 16.9284C68.5695 16.1079 68.4104 15.2539 68.4104 14.3665C68.4104 13.1442 68.6951 12.0474 69.2644 11.0763C69.8337 10.1051 70.5955 9.33487 71.55 8.76557C72.5044 8.19626 73.5593 7.91161 74.7146 7.91161ZM75.7946 19.0884C76.1127 19.0884 76.4644 19.0046 76.8495 18.8372C77.2346 18.6698 77.5695 18.3767 77.8541 17.9581C78.1555 17.5395 78.3062 16.9618 78.3062 16.2251C78.3062 15.6391 78.189 14.9944 77.9546 14.2911C77.7369 13.5711 77.4272 12.8846 77.0253 12.2316C76.6402 11.5618 76.1797 11.0177 75.6439 10.5991C75.1248 10.1637 74.5555 9.94603 73.936 9.94603C73.2495 9.94603 72.6551 10.2056 72.1527 10.7246C71.6504 11.227 71.3993 11.9218 71.3993 12.8093C71.3993 13.3786 71.5081 14.0232 71.7258 14.7432C71.9602 15.4632 72.27 16.1581 72.6551 16.8279C73.0569 17.4809 73.5258 18.0251 74.0616 18.4605C74.5974 18.8791 75.1751 19.0884 75.7946 19.0884ZM86.8823 10.8753C87.3344 9.90417 87.9623 9.16743 88.766 8.6651C89.5697 8.16278 90.4153 7.91161 91.3027 7.91161C92.0897 7.91161 92.7595 8.12929 93.312 8.56464C93.8646 8.99998 94.1409 9.64464 94.1409 10.4986C94.1409 10.867 94.1074 11.1935 94.0404 11.4781C93.9734 11.7628 93.7892 11.9721 93.4878 12.106L91.1269 13.0604C91.0265 13.0939 90.9511 13.1107 90.9009 13.1107C90.7502 13.1107 90.6748 13.0353 90.6748 12.8846C90.6748 12.8344 90.6916 12.7591 90.7251 12.6586C90.8255 12.4242 90.8841 12.1981 90.9009 11.9805C90.9344 11.7628 90.9511 11.5702 90.9511 11.4028C90.9511 10.9507 90.8339 10.6242 90.5995 10.4232C90.3818 10.2056 90.1055 10.0967 89.7706 10.0967C89.3855 10.0967 89.0255 10.2139 88.6906 10.4484C88.3558 10.6828 88.0627 10.9674 87.8116 11.3023C87.5604 11.6372 87.3762 11.9637 87.259 12.2818V16.9032C87.259 17.573 87.4097 18.1423 87.7111 18.6111C88.0125 19.0632 88.473 19.2893 89.0925 19.2893H89.1427C89.3939 19.2893 89.5195 19.4149 89.5195 19.666V20.4195C89.5195 20.6707 89.3939 20.7963 89.1427 20.7963H81.8339C81.5827 20.7963 81.4572 20.6707 81.4572 20.4195V19.666C81.4572 19.4149 81.5827 19.2893 81.8339 19.2893H81.8841C82.5037 19.2893 82.9641 19.0632 83.2655 18.6111C83.5669 18.1423 83.7176 17.573 83.7176 16.9032V13.7386C83.7176 13.2865 83.6841 12.8511 83.6172 12.4325C83.5669 12.0139 83.4413 11.6623 83.2404 11.3777C83.0395 11.0763 82.7046 10.9005 82.2358 10.8502C82.0348 10.8335 81.9344 10.7246 81.9344 10.5237V9.66975C81.9344 9.50231 82.0599 9.39347 82.3111 9.34324C83.4999 9.15905 84.5381 8.86603 85.4255 8.46417C86.3297 8.06231 86.9409 7.74417 87.259 7.50975C87.3092 7.47626 87.3511 7.45952 87.3846 7.45952H87.4348C87.4683 7.45952 87.4851 7.47626 87.4851 7.50975C87.4851 7.5265 87.4599 7.65208 87.4097 7.8865C87.3762 8.12092 87.326 8.42231 87.259 8.79068C87.2088 9.14231 87.1418 9.51068 87.0581 9.8958C86.9911 10.2642 86.9325 10.5907 86.8823 10.8753ZM99.5477 1.45673C99.6984 1.60743 99.824 1.79161 99.9245 2.00929C100.025 2.22696 100.075 2.50324 100.075 2.83812C100.075 3.0558 100.05 3.30696 99.9998 3.59161C99.8994 4.09394 99.6566 4.61301 99.2715 5.14882C98.8863 5.68464 98.451 6.19533 97.9654 6.68091C97.4966 7.14975 97.0612 7.53487 96.6594 7.83626C96.2575 8.12092 95.9812 8.26324 95.8305 8.26324C95.7635 8.26324 95.6715 8.2465 95.5542 8.21301C95.437 8.16278 95.1942 8.05394 94.8259 7.8865C95.4287 7.41766 95.9059 6.91533 96.2575 6.37952C96.6259 5.82696 96.8101 5.34975 96.8101 4.94789C96.8101 4.71347 96.7431 4.52929 96.6091 4.39533L95.6296 3.4158C95.3115 3.09766 95.1524 2.77115 95.1524 2.43626C95.1524 2.10138 95.3115 1.77487 95.6296 1.45673L96.6091 0.477194C96.9273 0.159054 97.2538 -1.65867e-05 97.5887 -1.65867e-05C97.9235 -1.65867e-05 98.2501 0.159054 98.5682 0.477194L99.5477 1.45673ZM112.191 12.1311C112.091 12.1814 112.007 12.2065 111.94 12.2065C111.823 12.2065 111.714 12.1479 111.614 12.0307C110.86 11.0763 110.073 10.4065 109.253 10.0214C108.432 9.63626 107.721 9.44371 107.118 9.44371C106.683 9.44371 106.281 9.5358 105.912 9.71998C105.544 9.90417 105.36 10.2391 105.36 10.7246C105.36 11.093 105.494 11.4028 105.762 11.6539C106.046 11.8884 106.406 12.0809 106.842 12.2316C107.277 12.3823 107.721 12.5163 108.173 12.6335C108.826 12.7842 109.479 12.96 110.132 13.1609C110.802 13.3618 111.413 13.6298 111.965 13.9646C112.518 14.2828 112.962 14.6846 113.297 15.1702C113.648 15.6558 113.824 16.267 113.824 17.0037C113.824 17.7907 113.606 18.4939 113.171 19.1135C112.752 19.733 112.15 20.227 111.363 20.5953C110.576 20.947 109.638 21.1228 108.55 21.1228C108.03 21.1228 107.52 21.0558 107.017 20.9218C106.532 20.8046 106.071 20.6456 105.636 20.4446C105.536 20.3944 105.46 20.3693 105.41 20.3693C105.293 20.3693 105.234 20.4279 105.234 20.5451C105.234 20.5786 105.251 20.6456 105.284 20.746C105.318 20.8465 105.335 20.9135 105.335 20.947C105.335 21.0809 105.234 21.1479 105.033 21.1479H104.129C103.945 21.1479 103.803 21.0642 103.702 20.8967L101.542 16.853C101.492 16.7525 101.467 16.6772 101.467 16.627C101.467 16.5098 101.534 16.4093 101.668 16.3256L102.446 15.8735C102.547 15.8232 102.622 15.7981 102.672 15.7981C102.773 15.7981 102.865 15.8735 102.949 16.0242C103.769 17.2465 104.665 18.1172 105.636 18.6363C106.624 19.1553 107.629 19.4149 108.65 19.4149C110.257 19.4149 111.061 18.9377 111.061 17.9832C111.061 17.5479 110.86 17.1879 110.458 16.9032C110.073 16.6186 109.588 16.3842 109.002 16.2C108.432 16.0158 107.855 15.8567 107.269 15.7228C106.197 15.4549 105.343 15.1535 104.707 14.8186C104.07 14.467 103.593 14.0986 103.275 13.7135C102.957 13.3116 102.739 12.9181 102.622 12.533C102.522 12.1311 102.471 11.746 102.471 11.3777C102.471 10.373 102.857 9.54417 103.627 8.89115C104.397 8.23812 105.444 7.91161 106.766 7.91161C107.553 7.91161 108.248 8.02045 108.851 8.23812C109.454 8.43905 109.872 8.6065 110.107 8.74045C110.174 8.77394 110.224 8.79068 110.257 8.79068C110.308 8.79068 110.333 8.75719 110.333 8.69022C110.333 8.63998 110.308 8.53952 110.257 8.38882C110.241 8.3051 110.224 8.2465 110.207 8.21301C110.207 8.16278 110.207 8.12092 110.207 8.08743C110.207 7.91998 110.316 7.83626 110.534 7.83626H111.187C111.404 7.83626 111.547 7.92836 111.614 8.11254L112.87 11.3023C112.92 11.4028 112.945 11.4865 112.945 11.5535C112.945 11.6707 112.878 11.7628 112.744 11.8298L112.191 12.1311ZM126.231 16.9032C126.231 17.573 126.357 18.1423 126.608 18.6111C126.859 19.0632 127.294 19.2893 127.914 19.2893H128.065C128.316 19.2893 128.441 19.4149 128.441 19.666V20.4195C128.441 20.6707 128.316 20.7963 128.065 20.7963H120.354C120.103 20.7963 119.977 20.6707 119.977 20.4195V19.666C119.977 19.4149 120.103 19.2893 120.354 19.2893H120.53C121.166 19.2893 121.601 19.0632 121.836 18.6111C122.087 18.1423 122.213 17.573 122.213 16.9032V5.85208C122.213 5.16557 122.079 4.59626 121.811 4.14417C121.56 3.69208 121.091 3.46603 120.404 3.46603H120.379C120.128 3.46603 120.002 3.34045 120.002 3.08929V2.3358C120.002 2.08464 120.128 1.95905 120.379 1.95905H129.597C130.953 1.95905 132.134 2.22696 133.138 2.76277C134.143 3.28184 134.921 3.96836 135.474 4.82231C136.027 5.65952 136.303 6.55533 136.303 7.50975C136.303 8.58138 136.043 9.55254 135.524 10.4232C135.005 11.2772 134.151 11.9553 132.962 12.4577C131.774 12.96 130.158 13.2111 128.115 13.2111H126.231V16.9032ZM127.688 11.4279C129.362 11.4279 130.585 11.1265 131.355 10.5237C132.142 9.90417 132.535 8.89952 132.535 7.50975C132.535 6.3544 132.175 5.39161 131.455 4.62138C130.735 3.85115 129.748 3.46603 128.492 3.46603H126.081V11.4279H127.688ZM142.109 7.91161C143.063 7.91161 143.942 8.10417 144.746 8.48929C145.566 8.85766 146.27 9.36836 146.856 10.0214C147.442 10.6577 147.894 11.3777 148.212 12.1814C148.547 12.9684 148.714 13.7888 148.714 14.6428C148.714 15.8818 148.421 16.9953 147.835 17.9832C147.249 18.9544 146.479 19.7246 145.524 20.2939C144.57 20.8465 143.532 21.1228 142.41 21.1228C141.456 21.1228 140.577 20.9386 139.773 20.5702C138.969 20.2018 138.266 19.7079 137.663 19.0884C137.077 18.4521 136.617 17.7321 136.282 16.9284C135.964 16.1079 135.804 15.2539 135.804 14.3665C135.804 13.1442 136.089 12.0474 136.658 11.0763C137.228 10.1051 137.99 9.33487 138.944 8.76557C139.898 8.19626 140.953 7.91161 142.109 7.91161ZM143.189 19.0884C143.507 19.0884 143.858 19.0046 144.244 18.8372C144.629 18.6698 144.964 18.3767 145.248 17.9581C145.55 17.5395 145.7 16.9618 145.7 16.2251C145.7 15.6391 145.583 14.9944 145.349 14.2911C145.131 13.5711 144.821 12.8846 144.419 12.2316C144.034 11.5618 143.574 11.0177 143.038 10.5991C142.519 10.1637 141.95 9.94603 141.33 9.94603C140.644 9.94603 140.049 10.2056 139.547 10.7246C139.044 11.227 138.793 11.9218 138.793 12.8093C138.793 13.3786 138.902 14.0232 139.12 14.7432C139.354 15.4632 139.664 16.1581 140.049 16.8279C140.451 17.4809 140.92 18.0251 141.456 18.4605C141.991 18.8791 142.569 19.0884 143.189 19.0884ZM154.276 10.8753C154.728 9.90417 155.356 9.16743 156.16 8.6651C156.964 8.16278 157.809 7.91161 158.697 7.91161C159.484 7.91161 160.154 8.12929 160.706 8.56464C161.259 8.99998 161.535 9.64464 161.535 10.4986C161.535 10.867 161.501 11.1935 161.434 11.4781C161.367 11.7628 161.183 11.9721 160.882 12.106L158.521 13.0604C158.42 13.0939 158.345 13.1107 158.295 13.1107C158.144 13.1107 158.069 13.0353 158.069 12.8846C158.069 12.8344 158.086 12.7591 158.119 12.6586C158.22 12.4242 158.278 12.1981 158.295 11.9805C158.328 11.7628 158.345 11.5702 158.345 11.4028C158.345 10.9507 158.228 10.6242 157.994 10.4232C157.776 10.2056 157.5 10.0967 157.165 10.0967C156.78 10.0967 156.42 10.2139 156.085 10.4484C155.75 10.6828 155.457 10.9674 155.206 11.3023C154.954 11.6372 154.77 11.9637 154.653 12.2818V16.9032C154.653 17.573 154.804 18.1423 155.105 18.6111C155.407 19.0632 155.867 19.2893 156.487 19.2893H156.537C156.788 19.2893 156.914 19.4149 156.914 19.666V20.4195C156.914 20.6707 156.788 20.7963 156.537 20.7963H149.228C148.977 20.7963 148.851 20.6707 148.851 20.4195V19.666C148.851 19.4149 148.977 19.2893 149.228 19.2893H149.278C149.898 19.2893 150.358 19.0632 150.66 18.6111C150.961 18.1423 151.112 17.573 151.112 16.9032V13.7386C151.112 13.2865 151.078 12.8511 151.011 12.4325C150.961 12.0139 150.835 11.6623 150.634 11.3777C150.434 11.0763 150.099 10.9005 149.63 10.8502C149.429 10.8335 149.328 10.7246 149.328 10.5237V9.66975C149.328 9.50231 149.454 9.39347 149.705 9.34324C150.894 9.15905 151.932 8.86603 152.82 8.46417C153.724 8.06231 154.335 7.74417 154.653 7.50975C154.703 7.47626 154.745 7.45952 154.779 7.45952H154.829C154.862 7.45952 154.879 7.47626 154.879 7.50975C154.879 7.5265 154.854 7.65208 154.804 7.8865C154.77 8.12092 154.72 8.42231 154.653 8.79068C154.603 9.14231 154.536 9.51068 154.452 9.8958C154.385 10.2642 154.327 10.5907 154.276 10.8753ZM171.256 18.9879C171.306 19.0549 171.331 19.1302 171.331 19.2139C171.331 19.3144 171.264 19.4065 171.13 19.4902L170.377 19.9674C169.925 20.2521 169.381 20.52 168.744 20.7711C168.108 21.0056 167.472 21.1228 166.835 21.1228C166.333 21.1228 165.856 21.0056 165.404 20.7711C164.968 20.5367 164.617 20.1432 164.349 19.5907C164.081 19.0214 163.947 18.2428 163.947 17.2549V12.6084C163.947 12.1563 163.922 11.7125 163.872 11.2772C163.821 10.8251 163.662 10.4567 163.394 10.1721C163.143 9.88743 162.716 9.7451 162.114 9.7451C161.862 9.7451 161.737 9.61952 161.737 9.36836V8.61487C161.737 8.36371 161.862 8.23812 162.114 8.23812H163.947V6.55533C163.947 6.33766 164.022 6.18696 164.173 6.10324C164.541 5.90231 165.027 5.62603 165.63 5.2744C166.233 4.90603 166.768 4.48743 167.237 4.01859C167.271 3.9851 167.313 3.96836 167.363 3.96836H167.413C167.447 3.96836 167.463 3.99347 167.463 4.0437V8.23812H170.829C171.08 8.23812 171.206 8.36371 171.206 8.61487V9.69487C171.206 9.94603 171.08 10.0716 170.829 10.0716H167.463V17.2549C167.463 17.9079 167.564 18.36 167.765 18.6111C167.966 18.8456 168.217 18.9628 168.518 18.9628C168.803 18.9628 169.104 18.8874 169.422 18.7367C169.741 18.5693 170.034 18.4018 170.301 18.2344C170.419 18.1674 170.511 18.1339 170.578 18.1339C170.678 18.1339 170.77 18.2009 170.854 18.3349L171.256 18.9879ZM173.816 8.03719C173.816 7.28371 173.908 6.48836 174.092 5.65115C174.276 4.79719 174.578 4.00184 174.996 3.2651C175.432 2.51161 176.009 1.90045 176.729 1.43161C177.466 0.946031 178.387 0.703241 179.492 0.703241C180.832 0.703241 181.82 0.962775 182.456 1.48184C183.109 1.98417 183.435 2.61208 183.435 3.36557C183.435 3.80091 183.352 4.21952 183.184 4.62138C183.134 4.73859 183.059 4.83905 182.958 4.92278C182.874 5.0065 182.74 5.0651 182.556 5.09859C182.255 5.16557 181.895 5.24929 181.476 5.34975C181.074 5.43347 180.706 5.50882 180.371 5.5758C180.053 5.64277 179.869 5.67626 179.819 5.67626C179.718 5.67626 179.668 5.60091 179.668 5.45022C179.668 5.3665 179.693 5.2744 179.743 5.17394C180.061 4.53766 180.22 3.9851 180.22 3.51626C180.22 3.04743 180.095 2.6958 179.844 2.46138C179.609 2.21022 179.341 2.08463 179.04 2.08463C178.638 2.08463 178.286 2.26882 177.985 2.63719C177.667 3.00557 177.449 3.51626 177.332 4.16929C177.232 4.82231 177.181 5.62603 177.181 6.58045V8.23812H180.547C180.798 8.23812 180.924 8.36371 180.924 8.61487V9.69487C180.924 9.94603 180.798 10.0716 180.547 10.0716H177.181V16.9032C177.181 17.573 177.332 18.1423 177.633 18.6111C177.952 19.0632 178.42 19.2893 179.04 19.2893C179.291 19.2893 179.417 19.4149 179.417 19.666V20.4195C179.417 20.6707 179.291 20.7963 179.04 20.7963H171.957C171.706 20.7963 171.58 20.6707 171.58 20.4195V19.666C171.58 19.4149 171.706 19.2893 171.957 19.2893C172.577 19.2893 173.037 19.0632 173.339 18.6111C173.64 18.1423 173.791 17.573 173.791 16.9032V12.6084C173.791 12.1563 173.766 11.7125 173.715 11.2772C173.665 10.8251 173.506 10.4567 173.238 10.1721C172.987 9.88743 172.56 9.7451 171.957 9.7451C171.706 9.7451 171.58 9.61952 171.58 9.36836V8.61487C171.58 8.36371 171.706 8.23812 171.957 8.23812H173.816V8.03719ZM188.493 7.91161C189.448 7.91161 190.327 8.10417 191.131 8.48929C191.951 8.85766 192.654 9.36836 193.24 10.0214C193.826 10.6577 194.278 11.3777 194.597 12.1814C194.931 12.9684 195.099 13.7888 195.099 14.6428C195.099 15.8818 194.806 16.9953 194.22 17.9832C193.634 18.9544 192.864 19.7246 191.909 20.2939C190.955 20.8465 189.917 21.1228 188.795 21.1228C187.84 21.1228 186.961 20.9386 186.157 20.5702C185.354 20.2018 184.651 19.7079 184.048 19.0884C183.462 18.4521 183.001 17.7321 182.666 16.9284C182.348 16.1079 182.189 15.2539 182.189 14.3665C182.189 13.1442 182.474 12.0474 183.043 11.0763C183.612 10.1051 184.374 9.33487 185.329 8.76557C186.283 8.19626 187.338 7.91161 188.493 7.91161ZM189.573 19.0884C189.891 19.0884 190.243 19.0046 190.628 18.8372C191.013 18.6698 191.348 18.3767 191.633 17.9581C191.934 17.5395 192.085 16.9618 192.085 16.2251C192.085 15.6391 191.968 14.9944 191.733 14.2911C191.516 13.5711 191.206 12.8846 190.804 12.2316C190.419 11.5618 189.958 11.0177 189.423 10.5991C188.904 10.1637 188.334 9.94603 187.715 9.94603C187.028 9.94603 186.434 10.2056 185.931 10.7246C185.429 11.227 185.178 11.9218 185.178 12.8093C185.178 13.3786 185.287 14.0232 185.504 14.7432C185.739 15.4632 186.049 16.1581 186.434 16.8279C186.836 17.4809 187.304 18.0251 187.84 18.4605C188.376 18.8791 188.954 19.0884 189.573 19.0884ZM202.429 19.2893C202.68 19.2893 202.805 19.4149 202.805 19.666V20.4195C202.805 20.6707 202.663 20.7963 202.378 20.7963H195.27C194.986 20.7963 194.843 20.6707 194.843 20.4195V19.666C194.843 19.4149 194.969 19.2893 195.22 19.2893H195.27C195.89 19.2893 196.342 19.0632 196.627 18.6111C196.928 18.1423 197.079 17.573 197.079 16.9032V7.48464C197.079 7.0158 197.045 6.57208 196.978 6.15347C196.928 5.73487 196.802 5.38324 196.602 5.09859C196.401 4.79719 196.066 4.62138 195.597 4.57115C195.396 4.5544 195.296 4.44557 195.296 4.24464V3.39068C195.296 3.29022 195.329 3.22324 195.396 3.18975C195.463 3.15626 195.555 3.1144 195.672 3.06417C196.861 2.62882 197.807 2.22696 198.51 1.85859C199.23 1.47347 199.825 1.1051 200.294 0.753473C200.327 0.719985 200.361 0.703241 200.394 0.703241H200.469C200.503 0.703241 200.52 0.719985 200.52 0.753473V16.8781C200.52 17.5479 200.67 18.1172 200.972 18.586C201.273 19.0549 201.734 19.2893 202.353 19.2893H202.429ZM210.382 19.2893C210.634 19.2893 210.759 19.4149 210.759 19.666V20.4195C210.759 20.6707 210.617 20.7963 210.332 20.7963H203.224C202.94 20.7963 202.797 20.6707 202.797 20.4195V19.666C202.797 19.4149 202.923 19.2893 203.174 19.2893H203.224C203.844 19.2893 204.296 19.0632 204.58 18.6111C204.882 18.1423 205.033 17.573 205.033 16.9032V14.2409C205.033 13.8558 204.999 13.4707 204.932 13.0856C204.882 12.7005 204.756 12.3656 204.555 12.0809C204.354 11.7963 204.02 11.6288 203.551 11.5786C203.35 11.5618 203.249 11.453 203.249 11.2521V10.3981C203.249 10.2977 203.283 10.2307 203.35 10.1972C203.417 10.147 203.509 10.1051 203.626 10.0716C204.949 9.63626 205.962 9.19254 206.665 8.74045C207.385 8.27161 207.913 7.86138 208.247 7.50975C208.281 7.47626 208.314 7.45952 208.348 7.45952H208.423C208.457 7.45952 208.474 7.47626 208.474 7.50975V16.8781C208.474 17.5479 208.624 18.1172 208.926 18.586C209.227 19.0549 209.687 19.2893 210.307 19.2893H210.382ZM206.791 2.21022C207.226 2.21022 207.653 2.41952 208.072 2.83812C208.49 3.25673 208.7 3.67533 208.7 4.09394C208.7 4.51254 208.49 4.93115 208.072 5.34975C207.653 5.76836 207.226 5.97766 206.791 5.97766C206.389 5.97766 205.97 5.76836 205.535 5.34975C205.116 4.94789 204.907 4.52929 204.907 4.09394C204.907 3.67533 205.116 3.25673 205.535 2.83812C205.954 2.41952 206.372 2.21022 206.791 2.21022ZM216.843 7.91161C217.798 7.91161 218.677 8.10417 219.481 8.48929C220.301 8.85766 221.004 9.36836 221.59 10.0214C222.176 10.6577 222.628 11.3777 222.947 12.1814C223.281 12.9684 223.449 13.7888 223.449 14.6428C223.449 15.8818 223.156 16.9953 222.57 17.9832C221.984 18.9544 221.214 19.7246 220.259 20.2939C219.305 20.8465 218.267 21.1228 217.145 21.1228C216.19 21.1228 215.311 20.9386 214.508 20.5702C213.704 20.2018 213.001 19.7079 212.398 19.0884C211.812 18.4521 211.351 17.7321 211.016 16.9284C210.698 16.1079 210.539 15.2539 210.539 14.3665C210.539 13.1442 210.824 12.0474 211.393 11.0763C211.962 10.1051 212.724 9.33487 213.679 8.76557C214.633 8.19626 215.688 7.91161 216.843 7.91161ZM217.923 19.0884C218.241 19.0884 218.593 19.0046 218.978 18.8372C219.363 18.6698 219.698 18.3767 219.983 17.9581C220.284 17.5395 220.435 16.9618 220.435 16.2251C220.435 15.6391 220.318 14.9944 220.083 14.2911C219.866 13.5711 219.556 12.8846 219.154 12.2316C218.769 11.5618 218.308 11.0177 217.773 10.5991C217.254 10.1637 216.684 9.94603 216.065 9.94603C215.378 9.94603 214.784 10.2056 214.281 10.7246C213.779 11.227 213.528 11.9218 213.528 12.8093C213.528 13.3786 213.637 14.0232 213.854 14.7432C214.089 15.4632 214.399 16.1581 214.784 16.8279C215.186 17.4809 215.654 18.0251 216.19 18.4605C216.726 18.8791 217.304 19.0884 217.923 19.0884Z" fill="#9A8711"/>
</svg>
